<?xml version="1.0" encoding="utf-8" ?><svg xmlns="http://www.w3.org/2000/svg" width="200" height="200"><style>.rect{fill:blue;}</style><g transform="translate(100,100)"><g transform="rotate(0),translate(68),rotate(45)"><rect class="rect" x="-20" y="-20" width="40" height="40"></rect></g><g transform="rotate(45),translate(68),rotate(45)"><rect class="rect" x="-20" y="-20" width="40" height="40"></rect></g><g transform="rotate(90),translate(68),rotate(45)"><rect class="rect" x="-20" y="-20" width="40" height="40"></rect></g><g transform="rotate(135),translate(68),rotate(45)"><rect class="rect" x="-20" y="-20" width="40" height="40"></rect></g><g transform="rotate(180),translate(68),rotate(45)"><rect class="rect" x="-20" y="-20" width="40" height="40"></rect></g><g transform="rotate(225),translate(68),rotate(45)"><rect class="rect" x="-20" y="-20" width="40" height="40"></rect></g><g transform="rotate(270),translate(68),rotate(45)"><rect class="rect" x="-20" y="-20" width="40" height="40"></rect></g><g transform="rotate(315),translate(68),rotate(45)"><rect class="rect" x="-20" y="-20" width="40" height="40"></rect></g></g></svg>